<svg width="15" height="15" viewBox="0 0 15 15" fill="none" xmlns="http://www.w3.org/2000/svg">
<path fill-rule="evenodd" clip-rule="evenodd" d="M0.32698 1.63778C0 2.27952 0 3.1196 0 4.79976V10.1998C0 11.8799 0 12.72 0.32698 13.3617C0.614601 13.9262 1.07354 14.3852 1.63803 14.6728C2.27976 14.9998 3.11984 14.9998 4.8 14.9998H10.2C11.8802 14.9998 12.7202 14.9998 13.362 14.6728C13.9265 14.3852 14.3854 13.9262 14.673 13.3617C15 12.72 15 11.8799 15 10.1998V4.79976C15 3.1196 15 2.27952 14.673 1.63778C14.3854 1.0733 13.9265 0.614356 13.362 0.326736C12.7202 -0.000244141 11.8802 -0.000244141 10.2 -0.000244141H4.8C3.11984 -0.000244141 2.27976 -0.000244141 1.63803 0.326736C1.07354 0.614356 0.614601 1.0733 0.32698 1.63778ZM11.0464 5.0948C10.7535 4.80191 10.2786 4.80191 9.98571 5.0948L6.01604 9.06447L4.65543 7.70386C4.36254 7.41097 3.88766 7.41097 3.59477 7.70386C3.30188 7.99676 3.30188 8.47163 3.59477 8.76452L5.48571 10.6555C5.7786 10.9484 6.25347 10.9484 6.54637 10.6555L11.0464 6.15546C11.3393 5.86257 11.3393 5.38769 11.0464 5.0948Z" fill="#3FC4FD"/>
</svg>
